<svg id="Layer_1" data-name="Layer 1" xmlns="http://www.w3.org/2000/svg" viewBox="0 0 1200 600"><defs><style>.cls-1{fill:#fff}.cls-2{fill:#00f}.cls-3{fill:red}.cls-4{fill:#ff0}</style></defs><path class="cls-1" d="M0 0h1200v600H0z"/><path class="cls-2" d="M0 200h1200v400H0z"/><path class="cls-3" d="M0 400h1200v200H0zM227.415 115.337q-2.772 1.222-5.503 2.537l5.735 90.743A102.143 102.143 0 00300.215 300h.001a102.141 102.141 0 0072.568-91.383l5.735-90.743q-2.731-1.315-5.503-2.537h.001l-5.87 92.891a96.494 96.494 0 01-66.93 85.856h-.002a96.495 96.495 0 01-66.93-85.856l-5.87-92.891h.001"/><path class="cls-2" d="M373.017 115.337a180.453 180.453 0 00-145.604 0l5.872 92.891a96.495 96.495 0 0066.93 85.856h.001a96.496 96.496 0 0066.93-85.856"/><path class="cls-4" d="M304.62 143.45l3.225-4.405-5.428.59-2.201-4.994-2.203 4.995-5.427-.59 3.225 4.404-3.225 4.405 5.427-.59 2.203 4.994 2.201-4.995 5.428.59M284.065 116.044l3.225-4.405-5.427.59-2.202-4.994-2.202 4.995-5.427-.59 3.224 4.404-3.224 4.404 5.427-.59 2.202 4.995 2.202-4.995 5.427.59M325.174 116.044l3.224-4.405-5.426.59-2.203-4.994-2.202 4.995-5.426-.59 3.224 4.404-3.224 4.404 5.426-.59 2.202 4.995 2.203-4.995 5.426.59"/><path class="cls-1" d="M358.944 221.754l-29.365-39.152-11.746 15.661-17.618-35.237-17.618 35.237-11.746-15.661-29.364 39.152a19.576 19.576 0 0029.365 16.952c.02-.012-.023.014-.004.003a19.58 19.58 0 0119.579-.003 19.578 19.578 0 009.79 2.624h-.004a19.58 19.58 0 009.79-2.624 19.578 19.578 0 0119.579.003c.02.011-.023-.014-.004-.003a19.576 19.576 0 0029.365-16.952"/><path class="cls-1" d="M248.443 243.012q2.021 4.016 4.439 7.827v.003a19.58 19.58 0 0017.972-.834c.02-.011-.023.014-.004.003a19.56 19.56 0 019.79-2.624h-.003a19.55 19.55 0 019.79 2.624 19.579 19.579 0 0019.58-.003l-.005.003a19.557 19.557 0 019.79-2.624h-.003a19.548 19.548 0 019.79 2.624 19.58 19.58 0 0017.97.83q2.416-3.809 4.44-7.828a19.639 19.639 0 00-2.835 1.347c-.019.011.024-.014.005-.002a19.58 19.58 0 01-19.58 0 19.575 19.575 0 00-9.79-2.621h.004a19.575 19.575 0 00-9.79 2.623c-.019.011.024-.014.004-.002a19.579 19.579 0 01-19.58.002 19.578 19.578 0 00-9.789-2.623h.002a19.562 19.562 0 00-9.79 2.625l.005-.003a19.577 19.577 0 01-19.579.001 19.607 19.607 0 00-2.832-1.344"/><path class="cls-1" d="M342.479 258.035a90.925 90.925 0 01-42.264 30.099 90.907 90.907 0 01-42.264-30.1 19.576 19.576 0 0012.903-2.374c.019-.011-.024.014-.004.002a19.56 19.56 0 019.789-2.623h-.002a19.563 19.563 0 019.79 2.622 19.58 19.58 0 0019.58-.001c.018-.011-.025.014-.005.002a19.556 19.556 0 019.788-2.623 19.565 19.565 0 019.789 2.622 19.568 19.568 0 0012.9 2.373l-.001.001"/></svg>